<?xml version="1.0" encoding="utf-8"?>
<!-- Generator: Adobe Illustrator 11.0, SVG Export Plug-In  -->
<!DOCTYPE svg PUBLIC "-//W3C//DTD SVG 1.0//EN"    "http://www.w3.org/TR/2001/REC-SVG-20010904/DTD/svg10.dtd" [
	<!ENTITY ns_flows "http://ns.adobe.com/Flows/1.0/">
	<!ENTITY ns_svg "http://www.w3.org/2000/svg">
	<!ENTITY ns_xlink "http://www.w3.org/1999/xlink">
]>
<svg  xmlns="&ns_svg;" xmlns:xlink="&ns_xlink;" xmlns:a="http://ns.adobe.com/AdobeSVGViewerExtensions/3.0/"
	 width="601" height="499" viewBox="0 -0.97 601 499" xml:space="preserve">
	<defs>
	</defs>
	<g>
		<polygon points="100.533,454.994 449.415,454.994 469.613,498.03 80.335,498.03 "/>
		<path d="M550.866,227.516c0-0.823-0.022-1.639-0.03-2.459H0.029C0.023,225.876,0,226.693,0,227.516
			c0,89.692,39.291,169.792,100.867,222.56h348.548l0.166,0.354C511.396,397.664,550.866,317.409,550.866,227.516z"/>
		<path d="M573.138,61.675l-53.725-33.849L379.498,220.138h106.576l88.635-157.585C574.18,62.288,573.652,62,573.138,61.675z"/>
		<path d="M592.152,38.041L536.625,3.056c-7.458-4.701-16.417-3.888-20.008,1.813c-3.593,5.701-0.46,14.132,7.002,18.832
			l55.527,34.985c7.457,4.699,16.417,3.888,20.008-1.813C602.747,51.172,599.611,42.74,592.152,38.041z"/>
		<path fill="#FFFFFF" d="M347.98,327.022l-31.222,0.158l-12.441,19.874l-14.065-21.728c7.674-1.687,13.516-5.097,17.525-10.23
			c4.005-5.132,6.01-11.797,6.01-19.992c0-5.398-1.024-10.339-3.074-14.825c-2.05-4.481-4.977-8.168-8.783-11.062
			c-3.376-2.555-7.388-4.373-12.039-5.457c-4.65-1.086-12.879-1.629-24.687-1.629h-30.124v105.906h27.008v-41.476l27.077,44.692
			l-27.078,43.253h32.61l10.363-17.017l10.31,17.017h32.61l-27.453-42.411L347.98,327.022z M281.116,308.921
			c-2.875,2.117-7.43,3.175-13.663,3.175h-5.365v-27.779h5.799c6.33,0,10.836,1.118,13.519,3.355
			c2.682,2.237,4.024,6.001,4.024,11.29C285.43,303.483,283.992,306.805,281.116,308.921z"/>
	</g>
</svg>
