<?xml version="1.0" encoding="UTF-8"?>
<svg xmlns="http://www.w3.org/2000/svg" xmlns:xlink="http://www.w3.org/1999/xlink" width="279pt" height="204pt" viewBox="0 0 279 204" version="1.1">
<defs>
<filter id="alpha" filterUnits="objectBoundingBox" x="0%" y="0%" width="100%" height="100%">
  <feColorMatrix type="matrix" in="SourceGraphic" values="0 0 0 0 1 0 0 0 0 1 0 0 0 0 1 0 0 0 1 0"/>
</filter>
<mask id="mask0">
  <g filter="url(#alpha)">
<rect x="0" y="0" width="279" height="204" style="fill:rgb(0%,0%,0%);fill-opacity:0.101961;stroke:none;"/>
  </g>
</mask>
<clipPath id="clip1">
  <rect x="0" y="0" width="279" height="204"/>
</clipPath>
<g id="surface5" clip-path="url(#clip1)">
<path style=" stroke:none;fill-rule:nonzero;fill:rgb(0%,0%,0%);fill-opacity:1;" d="M 195.015625 195.578125 L 169.429688 200.832031 L 168.847656 200.773438 L 168.847656 171.460938 L 193.859375 167.695312 Z M 195.015625 195.578125 "/>
</g>
<mask id="mask1">
  <g filter="url(#alpha)">
<rect x="0" y="0" width="279" height="204" style="fill:rgb(0%,0%,0%);fill-opacity:0.0509804;stroke:none;"/>
  </g>
</mask>
<clipPath id="clip2">
  <rect x="0" y="0" width="279" height="204"/>
</clipPath>
<g id="surface8" clip-path="url(#clip2)">
<path style=" stroke:none;fill-rule:nonzero;fill:rgb(0%,0%,0%);fill-opacity:1;" d="M 193.859375 167.757812 L 193.851562 167.761719 L 168.847656 171.460938 L 146.363281 169.902344 L 173.886719 165.234375 L 193.851562 167.570312 L 193.859375 167.695312 Z M 193.859375 167.757812 "/>
</g>
<mask id="mask2">
  <g filter="url(#alpha)">
<rect x="0" y="0" width="279" height="204" style="fill:rgb(0%,0%,0%);fill-opacity:0.101961;stroke:none;"/>
  </g>
</mask>
<clipPath id="clip3">
  <rect x="0" y="0" width="279" height="204"/>
</clipPath>
<g id="surface11" clip-path="url(#clip3)">
<path style=" stroke:none;fill-rule:nonzero;fill:rgb(0%,0%,0%);fill-opacity:1;" d="M 229.691406 195.578125 L 204.105469 200.832031 L 203.523438 200.773438 L 203.523438 171.460938 L 228.535156 167.695312 Z M 229.691406 195.578125 "/>
</g>
<mask id="mask3">
  <g filter="url(#alpha)">
<rect x="0" y="0" width="279" height="204" style="fill:rgb(0%,0%,0%);fill-opacity:0.0509804;stroke:none;"/>
  </g>
</mask>
<clipPath id="clip4">
  <rect x="0" y="0" width="279" height="204"/>
</clipPath>
<g id="surface14" clip-path="url(#clip4)">
<path style=" stroke:none;fill-rule:nonzero;fill:rgb(0%,0%,0%);fill-opacity:1;" d="M 228.535156 167.757812 L 228.527344 167.761719 L 203.523438 171.460938 L 181.039062 169.902344 L 208.5625 165.234375 L 228.527344 167.570312 L 228.535156 167.695312 Z M 228.535156 167.757812 "/>
</g>
<mask id="mask4">
  <g filter="url(#alpha)">
<rect x="0" y="0" width="279" height="204" style="fill:rgb(0%,0%,0%);fill-opacity:0.101961;stroke:none;"/>
  </g>
</mask>
<clipPath id="clip5">
  <rect x="0" y="0" width="279" height="204"/>
</clipPath>
<g id="surface17" clip-path="url(#clip5)">
<path style=" stroke:none;fill-rule:nonzero;fill:rgb(0%,0%,0%);fill-opacity:1;" d="M 279 154.394531 L 253.414062 159.648438 L 252.832031 159.589844 L 252.832031 130.277344 L 277.84375 126.511719 Z M 279 154.394531 "/>
</g>
<mask id="mask5">
  <g filter="url(#alpha)">
<rect x="0" y="0" width="279" height="204" style="fill:rgb(0%,0%,0%);fill-opacity:0.0509804;stroke:none;"/>
  </g>
</mask>
<clipPath id="clip6">
  <rect x="0" y="0" width="279" height="204"/>
</clipPath>
<g id="surface20" clip-path="url(#clip6)">
<path style=" stroke:none;fill-rule:nonzero;fill:rgb(0%,0%,0%);fill-opacity:1;" d="M 277.84375 126.574219 L 277.835938 126.582031 L 252.832031 130.277344 L 230.347656 128.71875 L 257.871094 124.050781 L 277.835938 126.386719 L 277.84375 126.511719 Z M 277.84375 126.574219 "/>
</g>
</defs>
<g id="surface1">
<path style=" stroke:none;fill-rule:nonzero;fill:rgb(90.196078%,90.196078%,90.196078%);fill-opacity:1;" d="M 0.0859375 0.117188 L 205.195312 0.117188 L 205.195312 131.9375 L 0.0859375 131.9375 Z M 0.0859375 0.117188 "/>
<path style=" stroke:none;fill-rule:nonzero;fill:rgb(100%,100%,100%);fill-opacity:1;" d="M 5.953125 16.648438 L 199.328125 16.648438 L 199.328125 124.140625 L 5.953125 124.140625 Z M 5.953125 16.648438 "/>
<path style=" stroke:none;fill-rule:nonzero;fill:rgb(0.392157%,74.901961%,44.313725%);fill-opacity:1;" d="M 0 0 L 205.105469 0 L 205.105469 8.746094 L 0 8.746094 Z M 0 0 "/>
<path style=" stroke:none;fill-rule:nonzero;fill:rgb(100%,100%,100%);fill-opacity:1;" d="M 8.089844 4.46875 C 8.089844 5.367188 7.367188 6.089844 6.476562 6.089844 C 5.582031 6.089844 4.859375 5.367188 4.859375 4.46875 C 4.859375 3.574219 5.582031 2.851562 6.476562 2.851562 C 7.367188 2.851562 8.089844 3.574219 8.089844 4.46875 Z M 8.089844 4.46875 "/>
<path style=" stroke:none;fill-rule:nonzero;fill:rgb(100%,100%,100%);fill-opacity:1;" d="M 14.21875 4.46875 C 14.21875 5.367188 13.496094 6.089844 12.605469 6.089844 C 11.714844 6.089844 10.992188 5.367188 10.992188 4.46875 C 10.992188 3.574219 11.714844 2.851562 12.605469 2.851562 C 13.496094 2.851562 14.21875 3.574219 14.21875 4.46875 Z M 14.21875 4.46875 "/>
<path style=" stroke:none;fill-rule:nonzero;fill:rgb(100%,100%,100%);fill-opacity:1;" d="M 20.351562 4.46875 C 20.351562 5.367188 19.628906 6.089844 18.734375 6.089844 C 17.84375 6.089844 17.121094 5.367188 17.121094 4.46875 C 17.121094 3.574219 17.84375 2.851562 18.734375 2.851562 C 19.628906 2.851562 20.351562 3.574219 20.351562 4.46875 Z M 20.351562 4.46875 "/>
<path style=" stroke:none;fill-rule:nonzero;fill:rgb(90.196078%,90.196078%,90.196078%);fill-opacity:1;" d="M 29.746094 25.492188 L 67.566406 25.492188 L 67.566406 66.667969 L 29.746094 66.667969 Z M 29.746094 25.492188 "/>
<path style=" stroke:none;fill-rule:nonzero;fill:rgb(90.196078%,90.196078%,90.196078%);fill-opacity:1;" d="M 83.730469 25.492188 L 121.550781 25.492188 L 121.550781 66.667969 L 83.730469 66.667969 Z M 83.730469 25.492188 "/>
<path style=" stroke:none;fill-rule:nonzero;fill:rgb(90.196078%,90.196078%,90.196078%);fill-opacity:1;" d="M 137.714844 25.492188 L 175.535156 25.492188 L 175.535156 66.667969 L 137.714844 66.667969 Z M 137.714844 25.492188 "/>
<path style=" stroke:none;fill-rule:nonzero;fill:rgb(90.196078%,90.196078%,90.196078%);fill-opacity:1;" d="M 29.746094 74.121094 L 67.566406 74.121094 L 67.566406 115.300781 L 29.746094 115.300781 Z M 29.746094 74.121094 "/>
<path style=" stroke:none;fill-rule:nonzero;fill:rgb(90.196078%,90.196078%,90.196078%);fill-opacity:1;" d="M 83.730469 74.121094 L 121.550781 74.121094 L 121.550781 115.300781 L 83.730469 115.300781 Z M 83.730469 74.121094 "/>
<path style=" stroke:none;fill-rule:nonzero;fill:rgb(90.196078%,90.196078%,90.196078%);fill-opacity:1;" d="M 137.714844 74.121094 L 175.535156 74.121094 L 175.535156 115.300781 L 137.714844 115.300781 Z M 137.714844 74.121094 "/>
<path style=" stroke:none;fill-rule:nonzero;fill:rgb(100%,100%,100%);fill-opacity:1;" d="M 92.871094 84.703125 L 99.78125 81.964844 L 100.585938 95.671875 C 100.585938 95.671875 102.03125 99.863281 101.550781 101.476562 C 101.550781 101.476562 101.871094 104.21875 101.066406 104.378906 C 100.261719 104.542969 98.011719 104.863281 97.851562 104.703125 C 97.691406 104.542969 97.691406 104.058594 97.691406 104.058594 C 97.691406 104.058594 96.085938 105.1875 95.925781 106.476562 C 95.925781 106.476562 89.175781 108.574219 89.015625 106.636719 C 88.851562 104.703125 92.390625 103.089844 92.390625 103.089844 L 95.121094 98.898438 Z M 92.871094 84.703125 "/>
<path style=" stroke:none;fill-rule:nonzero;fill:rgb(100%,100%,100%);fill-opacity:1;" d="M 107.496094 84.703125 L 114.40625 81.964844 L 115.210938 95.671875 C 115.210938 95.671875 116.65625 99.863281 116.171875 101.476562 C 116.171875 101.476562 116.496094 104.21875 115.691406 104.378906 C 114.886719 104.542969 112.636719 104.863281 112.476562 104.703125 C 112.316406 104.542969 112.316406 104.058594 112.316406 104.058594 C 112.316406 104.058594 110.710938 105.1875 110.546875 106.476562 C 110.546875 106.476562 103.800781 108.574219 103.636719 106.636719 C 103.476562 104.703125 107.011719 103.089844 107.011719 103.089844 L 109.746094 98.898438 Z M 107.496094 84.703125 "/>
<path style=" stroke:none;fill-rule:nonzero;fill:rgb(24.705882%,23.921569%,33.72549%);fill-opacity:1;" d="M 108.171875 31.769531 C 108.171875 31.769531 106.699219 35.894531 108.40625 37.753906 L 106.984375 42.65625 C 106.984375 42.65625 112.035156 57.859375 110.589844 59.984375 C 110.589844 59.984375 105.203125 62.6875 94.429688 59.019531 L 98.808594 41.980469 L 98.183594 34.789062 L 99.046875 31.410156 L 100.972656 31.21875 C 100.972656 31.21875 99.816406 35.5625 101.933594 36.238281 C 104.050781 36.914062 106.113281 31.324219 106.113281 31.324219 Z M 108.171875 31.769531 "/>
<path style=" stroke:none;fill-rule:nonzero;fill:rgb(100%,100%,100%);fill-opacity:1;" d="M 40.21875 58.402344 L 42.074219 59.167969 L 50.9375 47.476562 L 53.722656 61.199219 L 55.578125 60.859375 C 56.769531 49.03125 57.742188 36.964844 56.550781 31.257812 L 49.671875 30.960938 L 46.546875 40.957031 L 45.03125 47.730469 Z M 40.21875 58.402344 "/>
<path style=" stroke:none;fill-rule:nonzero;fill:rgb(100%,100%,100%);fill-opacity:1;" d="M 152.917969 31.164062 C 152.917969 31.164062 150.382812 34.699219 150.507812 36.125 C 150.632812 37.550781 152.238281 60.8125 152.238281 60.8125 L 156.007812 60.996094 L 154.894531 44.25 L 155.824219 39.722656 L 158.109375 60.8125 L 162.746094 60.933594 L 158.605469 33.582031 L 157.800781 31.164062 Z M 152.917969 31.164062 "/>
<path style=" stroke:none;fill-rule:nonzero;fill:rgb(24.705882%,23.921569%,33.72549%);fill-opacity:1;" d="M 167.242188 88.117188 C 166.566406 87.308594 165.410156 86.871094 164.300781 86.632812 C 164.335938 86.53125 160.921875 85.824219 160.867188 85.96875 L 159.578125 84.941406 L 155.628906 87 L 153.410156 85.484375 L 152.378906 85.851562 C 152.421875 85.667969 149.179688 86.234375 149.179688 86.234375 C 148.558594 86.253906 147.769531 86.292969 146.882812 86.363281 C 143.78125 86.601562 143.542969 94.664062 143.542969 94.664062 C 144.96875 94.078125 146.492188 93.757812 148.03125 93.71875 L 148.871094 103.359375 C 153.183594 102.988281 157.703125 103.421875 162.390625 104.476562 L 164.585938 96.898438 L 169.707031 94.902344 C 169.707031 94.902344 168.832031 90.035156 167.242188 88.117188 Z M 167.242188 88.117188 "/>
<path style=" stroke:none;fill-rule:nonzero;fill:rgb(100%,100%,100%);fill-opacity:1;" d="M 57.402344 83.527344 C 56.847656 82.859375 55.894531 82.5 54.980469 82.304688 C 55.007812 82.21875 52.199219 81.636719 52.152344 81.757812 L 51.089844 80.910156 L 47.835938 82.605469 L 46.007812 81.359375 L 45.160156 81.660156 C 45.191406 81.511719 42.519531 81.972656 42.519531 81.972656 C 42.011719 81.992188 41.359375 82.023438 40.628906 82.082031 C 38.074219 82.277344 37.878906 88.917969 37.878906 88.917969 C 39.054688 88.4375 40.308594 88.171875 41.578125 88.140625 L 42.265625 107.589844 C 45.820312 107.285156 49.546875 107.640625 53.40625 108.511719 L 55.21875 90.761719 L 59.433594 89.117188 C 59.433594 89.117188 58.714844 85.105469 57.402344 83.527344 Z M 57.402344 83.527344 "/>
<path style=" stroke:none;fill-rule:nonzero;fill:rgb(90.196078%,90.196078%,90.196078%);fill-opacity:1;" d="M 195.015625 195.578125 L 169.429688 200.832031 L 168.847656 200.773438 L 146.363281 198.496094 L 146.363281 169.902344 L 173.886719 165.234375 L 193.851562 167.570312 L 193.859375 167.695312 L 193.859375 167.757812 Z M 195.015625 195.578125 "/>
<use xlink:href="#surface5" mask="url(#mask0)"/>
<use xlink:href="#surface8" mask="url(#mask1)"/>
<path style=" stroke:none;fill-rule:nonzero;fill:rgb(100%,100%,100%);fill-opacity:1;" d="M 149.457031 179.882812 L 165.011719 180.902344 L 164.535156 188.226562 L 148.980469 187.207031 Z M 149.457031 179.882812 "/>
<path style=" stroke:none;fill-rule:nonzero;fill:rgb(0.392157%,74.901961%,44.313725%);fill-opacity:1;" d="M 152.953125 182.511719 L 161.207031 183.050781 L 161.042969 185.597656 L 152.789062 185.058594 Z M 152.953125 182.511719 "/>
<path style=" stroke:none;fill-rule:nonzero;fill:rgb(0.392157%,74.901961%,44.313725%);fill-opacity:1;" d="M 229.691406 195.578125 L 204.105469 200.832031 L 203.523438 200.773438 L 181.039062 198.496094 L 181.039062 169.902344 L 208.5625 165.234375 L 228.527344 167.570312 L 228.535156 167.695312 L 228.535156 167.757812 Z M 229.691406 195.578125 "/>
<use xlink:href="#surface11" mask="url(#mask2)"/>
<use xlink:href="#surface14" mask="url(#mask3)"/>
<path style=" stroke:none;fill-rule:nonzero;fill:rgb(100%,100%,100%);fill-opacity:1;" d="M 184.132812 179.882812 L 199.6875 180.902344 L 199.210938 188.226562 L 183.65625 187.207031 Z M 184.132812 179.882812 "/>
<path style=" stroke:none;fill-rule:nonzero;fill:rgb(0.392157%,74.901961%,44.313725%);fill-opacity:1;" d="M 187.628906 182.511719 L 195.882812 183.050781 L 195.71875 185.597656 L 187.464844 185.058594 Z M 187.628906 182.511719 "/>
<path style=" stroke:none;fill-rule:nonzero;fill:rgb(100%,72.156863%,72.156863%);fill-opacity:1;" d="M 248.203125 52.875 C 248.203125 52.875 252.71875 64.578125 244.441406 64.578125 C 236.164062 64.578125 257.230469 76.28125 265.507812 69.484375 C 273.785156 62.6875 268.894531 62.3125 268.894531 62.3125 C 268.894531 62.3125 257.984375 63.445312 258.359375 53.628906 Z M 248.203125 52.875 "/>
<path style=" stroke:none;fill-rule:nonzero;fill:rgb(18.431373%,18.039216%,25.490196%);fill-opacity:1;" d="M 267.386719 43.046875 C 267.386719 50.417969 261.429688 56.398438 254.082031 56.398438 C 246.734375 56.398438 240.78125 50.417969 240.78125 43.046875 C 240.78125 35.671875 246.734375 29.695312 254.082031 29.695312 C 261.429688 29.695312 267.386719 35.671875 267.386719 43.046875 Z M 267.386719 43.046875 "/>
<path style=" stroke:none;fill-rule:nonzero;fill:rgb(18.431373%,18.039216%,25.490196%);fill-opacity:1;" d="M 245.945312 101.570312 L 231.652344 138.566406 C 231.652344 138.566406 224.503906 149.890625 227.136719 161.21875 C 229.769531 172.542969 237.007812 193.152344 237.007812 193.152344 C 237.007812 193.152344 242.472656 194.550781 242.097656 189.640625 C 241.722656 184.734375 242.332031 160.941406 236.6875 154.523438 L 259.488281 128.375 L 260.242188 158.195312 C 260.242188 158.195312 258.734375 171.785156 259.113281 177.828125 C 259.488281 183.867188 260.242188 194.058594 260.242188 194.058594 L 264.753906 193.304688 C 264.753906 193.304688 270.84375 165.5 270.09375 156.441406 C 270.09375 156.441406 284.070312 112.417969 269.773438 101.847656 Z M 245.945312 101.570312 "/>
<path style=" stroke:none;fill-rule:nonzero;fill:rgb(18.431373%,18.039216%,25.490196%);fill-opacity:1;" d="M 238.578125 193.09375 C 238.578125 193.09375 236.738281 192.621094 236.527344 194.316406 C 236.3125 196.007812 232.441406 203.542969 236.484375 203.921875 C 240.527344 204.296875 241.925781 200.503906 242.601562 197.835938 C 243.277344 195.167969 243.535156 195.015625 244.101562 194.503906 C 244.664062 193.992188 246.011719 191.191406 244.324219 190.976562 C 242.632812 190.765625 241.769531 189.097656 241.769531 189.097656 C 241.769531 189.097656 241.238281 193.769531 238.578125 193.09375 Z M 238.578125 193.09375 "/>
<path style=" stroke:none;fill-rule:nonzero;fill:rgb(18.431373%,18.039216%,25.490196%);fill-opacity:1;" d="M 263.1875 191.78125 C 263.1875 191.78125 259.773438 191.292969 260.019531 192.515625 C 260.261719 193.738281 259.53125 198.878906 260.019531 199.367188 C 260.507812 199.855469 261.480469 200.835938 261.480469 201.570312 C 261.480469 202.304688 261.726562 204.75 265.871094 204.015625 C 270.015625 203.28125 269.039062 199.613281 268.796875 199.121094 C 268.550781 198.632812 265.625 196.1875 265.871094 194.71875 C 266.113281 193.25 264.652344 190.804688 263.1875 191.78125 Z M 263.1875 191.78125 "/>
<path style=" stroke:none;fill-rule:nonzero;fill:rgb(100%,72.156863%,72.156863%);fill-opacity:1;" d="M 263.464844 48.613281 C 263.464844 53.722656 259.335938 57.859375 254.25 57.859375 C 249.160156 57.859375 245.03125 53.722656 245.03125 48.613281 C 245.03125 43.507812 249.160156 39.367188 254.25 39.367188 C 259.335938 39.367188 263.464844 43.507812 263.464844 48.613281 Z M 263.464844 48.613281 "/>
<path style=" stroke:none;fill-rule:nonzero;fill:rgb(34.117647%,35.294118%,53.72549%);fill-opacity:1;" d="M 263.0625 61.367188 C 263.0625 61.367188 266.277344 67.75 256.589844 67.929688 C 253.609375 67.984375 250.070312 65.808594 248.605469 63.203125 C 247.746094 61.667969 247.527344 63.789062 246.132812 63.632812 C 243.496094 63.339844 240.679688 64.4375 238.15625 65.78125 C 237.484375 66.140625 237.160156 66.925781 237.378906 67.65625 C 239.292969 74.023438 244.753906 104.648438 245.597656 106.316406 C 247.75 110.574219 271.046875 103.445312 271.046875 103.445312 C 271.367188 91.859375 267.175781 75.648438 274.546875 63.859375 C 271.265625 61.382812 267.070312 60.472656 263.0625 61.367188 Z M 263.0625 61.367188 "/>
<path style=" stroke:none;fill-rule:nonzero;fill:rgb(18.431373%,18.039216%,25.490196%);fill-opacity:1;" d="M 262.867188 41.503906 L 256.113281 37.953125 L 246.789062 39.40625 L 244.863281 47.957031 L 249.664062 47.769531 L 251.003906 44.628906 L 251.003906 47.71875 L 253.21875 47.632812 L 254.507812 42.632812 L 255.308594 47.957031 L 263.1875 47.792969 Z M 262.867188 41.503906 "/>
<path style=" stroke:none;fill-rule:nonzero;fill:rgb(18.431373%,18.039216%,25.490196%);fill-opacity:1;" d="M 260.152344 27.820312 C 260.152344 30.796875 257.75 33.207031 254.785156 33.207031 C 251.820312 33.207031 249.414062 30.796875 249.414062 27.820312 C 249.414062 24.847656 251.820312 22.433594 254.785156 22.433594 C 257.75 22.433594 260.152344 24.847656 260.152344 27.820312 Z M 260.152344 27.820312 "/>
<path style=" stroke:none;fill-rule:nonzero;fill:rgb(18.431373%,18.039216%,25.490196%);fill-opacity:1;" d="M 248.015625 26.183594 C 248.015625 23.523438 249.949219 21.261719 252.566406 20.855469 C 250.476562 20.535156 248.394531 21.476562 247.246094 23.253906 C 246.097656 25.035156 246.097656 27.328125 247.246094 29.109375 C 248.394531 30.886719 250.476562 31.828125 252.566406 31.507812 C 249.949219 31.101562 248.015625 28.839844 248.015625 26.183594 Z M 248.015625 26.183594 "/>
<path style=" stroke:none;fill-rule:nonzero;fill:rgb(90.196078%,90.196078%,90.196078%);fill-opacity:1;" d="M 279 154.394531 L 253.414062 159.648438 L 252.832031 159.589844 L 230.347656 157.3125 L 230.347656 128.71875 L 257.871094 124.050781 L 277.835938 126.386719 L 277.84375 126.511719 L 277.84375 126.574219 Z M 279 154.394531 "/>
<use xlink:href="#surface17" mask="url(#mask4)"/>
<use xlink:href="#surface20" mask="url(#mask5)"/>
<path style=" stroke:none;fill-rule:nonzero;fill:rgb(100%,100%,100%);fill-opacity:1;" d="M 233.445312 138.699219 L 249 139.71875 L 248.523438 147.042969 L 232.96875 146.027344 Z M 233.445312 138.699219 "/>
<path style=" stroke:none;fill-rule:nonzero;fill:rgb(0.392157%,74.901961%,44.313725%);fill-opacity:1;" d="M 236.9375 141.328125 L 245.191406 141.867188 L 245.027344 144.417969 L 236.773438 143.875 Z M 236.9375 141.328125 "/>
<path style=" stroke:none;fill-rule:nonzero;fill:rgb(100%,72.156863%,72.156863%);fill-opacity:1;" d="M 239.144531 121.375 C 239.144531 121.375 229.742188 128.925781 233.878906 131.570312 C 238.015625 134.210938 242.90625 121.375 242.90625 121.375 Z M 239.144531 121.375 "/>
<path style=" stroke:none;fill-rule:nonzero;fill:rgb(34.117647%,35.294118%,53.72549%);fill-opacity:1;" d="M 239.550781 65.453125 C 239.066406 64.902344 232.914062 68.050781 233.824219 72.15625 L 234.253906 100.613281 C 234.253906 100.613281 231.996094 124.019531 237.640625 124.019531 C 243.28125 124.019531 242.617188 124.804688 243.371094 122.917969 C 244.121094 121.03125 244.324219 105.039062 244.324219 105.039062 Z M 239.550781 65.453125 "/>
<path style=" stroke:none;fill-rule:nonzero;fill:rgb(100%,72.156863%,72.156863%);fill-opacity:1;" d="M 268.644531 118.824219 C 268.644531 118.824219 273.535156 131.65625 277.675781 129.015625 C 281.8125 126.371094 272.40625 118.824219 272.40625 118.824219 Z M 268.644531 118.824219 "/>
<path style=" stroke:none;fill-rule:nonzero;fill:rgb(34.117647%,35.294118%,53.72549%);fill-opacity:1;" d="M 269.773438 102.804688 C 269.773438 102.804688 267.429688 118.476562 268.183594 120.363281 C 268.9375 122.253906 268.269531 121.464844 273.914062 121.464844 C 279.554688 121.464844 277.296875 98.058594 277.296875 98.058594 L 277.726562 69.605469 C 278.640625 65.496094 272.488281 62.347656 272 62.898438 L 266.59375 81.417969 Z M 269.773438 102.804688 "/>
</g>
</svg>
